Coordinates
version=1
nRows=32
nColumns=22
inDegrees=yes

Units are S.I. units (second, meters, Newtons, ...)
If the header above contains a line with 'inDegrees', this indicates whether rotational values are in degrees (yes) or radians (no).

endheader
time	pelvis_tilt	pelvis_list	pelvis_rotation	pelvis_tx	pelvis_ty	pelvis_tz	hip_flexion_r	hip_adduction_r	hip_rotation_r	knee_angle_r	ankle_angle_r	subtalar_angle_r	hip_flexion_l	hip_adduction_l	hip_rotation_l	knee_angle_l	ankle_angle_l	subtalar_angle_l	lumbar_extension	lumbar_bending	lumbar_rotation
      2.76000000	     -4.00944887	     -3.21254218	    -16.54134530	     -0.23159558	      0.87751205	      0.33700553	      2.38346364	     -0.14115694	     -5.82185339	    -15.83975916	     17.40885349	      2.94154200	     32.68006245	    -10.67175354	    -12.92988410	    -34.75279568	      8.87164796	     -6.74190142	     -4.19181302	      4.07787206	     29.40617996
      2.77000000	     -4.13424497	     -3.26950684	    -16.32074573	     -0.22430699	      0.87636678	      0.33698146	      1.81704365	     -0.17074300	     -6.18722837	    -15.57852391	     17.71402400	      3.09963562	     32.87880880	    -10.64422962	    -13.32841724	    -32.41419225	      9.07819651	     -6.44688877	     -3.98641231	      4.11764850	     29.62683142
      2.78000000	     -4.25397275	     -3.33165079	    -16.09917366	     -0.21700901	      0.87516848	      0.33685635	      1.26963252	     -0.20144542	     -6.54052286	    -15.36571243	     18.01346962	      3.27062619	     33.06415732	    -10.62704865	    -13.83502373	    -30.22807331	      9.36555814	     -6.15258934	     -3.78938237	      4.14974116	     29.81317939
      2.79000000	     -4.35921810	     -3.40962462	    -15.86886670	     -0.20968730	      0.87394438	      0.33664986	      0.72120728	     -0.22302945	     -6.87631488	    -15.19208863	     18.30182988	      3.45657853	     33.23372684	    -10.63505038	    -14.46871404	    -28.22588715	      9.71297039	     -5.91644164	     -3.61190540	      4.17964493	     29.95577855
      2.80000000	     -4.44750793	     -3.50800148	    -15.61673574	     -0.20230439	      0.87269841	      0.33636975	      0.16095335	     -0.23021465	     -7.21336123	    -15.05165793	     18.56955676	      3.63900240	     33.39434503	    -10.67594807	    -15.25468974	    -26.44027049	     10.09965257	     -5.80479761	     -3.45254568	      4.20748413	     30.04987912
      2.81000000	     -4.50052600	     -3.62800425	    -15.33649985	     -0.19483436	      0.87146747	      0.33601053	     -0.43687009	     -0.22637530	     -7.54955107	    -14.93491059	     18.81588036	      3.83248279	     33.52700810	    -10.74944339	    -16.22268516	    -24.88797104	     10.49610887	     -5.83999965	     -3.33009064	      4.22845341	     30.08790285
      2.82000000	     -4.51569905	     -3.76796387	    -15.02022072	     -0.18723815	      0.87025530	      0.33556520	     -1.07851900	     -0.21338358	     -7.89413937	    -14.83993206	     19.03686897	      4.03645708	     33.63009877	    -10.85370259	    -17.38933552	    -23.58750927	     10.88736673	     -6.03795269	     -3.24184455	      4.23853240	     30.06923294
      2.83000000	     -4.48911275	     -3.91943972	    -14.65864084	     -0.17947947	      0.86906833	      0.33500971	     -1.77172332	     -0.20164171	     -8.25590815	    -14.76008461	     19.22708391	      4.27253023	     33.69813355	    -10.97764989	    -18.76621673	    -22.54725332	     11.23270374	     -6.40246528	     -3.18549418	      4.22942037	     29.98315179
      2.84000000	     -4.42483091	     -4.07543588	    -14.24325396	     -0.17154301	      0.86789106	      0.33428466	     -2.49614409	     -0.20267082	     -8.65302178	    -14.72579787	     19.37689397	      4.58993911	     33.72558834	    -11.10029597	    -20.31884128	    -21.75431551	     11.54420890	     -6.96097445	     -3.15561906	      4.19981545	     29.81889081
      2.85000000	     -4.32031942	     -4.24391713	    -13.82244974	     -0.16343268	      0.86674415	      0.33348544	     -3.25916102	     -0.20070486	     -8.98977676	    -14.72471232	     19.52186421	      4.83449907	     33.69048008	    -11.26762442	    -22.08951328	    -21.21864358	     11.79315138	     -7.47516713	     -3.15647574	      4.15251712	     29.65588789
      2.86000000	     -4.19416009	     -4.40700555	    -13.35454639	     -0.15511595	      0.86558182	      0.33249760	     -4.02835802	     -0.21944002	     -9.35090912	    -14.78280894	     19.62080491	      5.16129610	     33.60830842	    -11.42574721	    -23.97138124	    -20.91063396	     11.98590279	     -8.09331442	     -3.16037192	      4.07970050	     29.43070856
      2.87000000	     -4.06323694	     -4.56190540	    -12.84831463	     -0.14656049	      0.86438246	      0.33130336	     -4.78343380	     -0.26323507	     -9.74812910	    -14.90675314	     19.66692915	      5.60074970	     33.47821318	    -11.57023321	    -25.90874284	    -20.80340081	     12.12315675	     -8.81038717	     -3.13996937	      3.98956669	     29.17345084
      2.88000000	     -3.93661902	     -4.72942542	    -12.35097349	     -0.13783821	      0.86315329	      0.33001337	     -5.51592654	     -0.29754416	    -10.05749161	    -15.08908858	     19.69281491	      6.03190459	     33.30159392	    -11.75979668	    -27.89500400	    -20.90091550	     12.16402064	     -9.46577872	     -3.10251522	      3.89704019	     28.93688472
      2.89000000	     -3.82158215	     -4.90074584	    -11.85502181	     -0.12892331	      0.86189214	      0.32858189	     -6.20796727	     -0.33787909	    -10.30490228	    -15.34743830	     19.66193112	      6.50247153	     33.07644960	    -11.96926143	    -29.85210646	    -21.16875128	     12.12993576	    -10.11889951	     -3.03323502	      3.80187157	     28.70373390
      2.90000000	     -3.73127947	     -5.08142394	    -11.35565756	     -0.11985566	      0.86058972	      0.32703619	     -6.84425294	     -0.37252896	    -10.50076598	    -15.68195525	     19.56664200	      7.01788542	     32.82644835	    -12.20219572	    -31.70476755	    -21.58882103	     12.01850954	    -10.77693751	     -2.92237758	      3.70313597	     28.47728902
      2.91000000	     -3.66209151	     -5.26891651	    -10.85315835	     -0.11064465	      0.85927080	      0.32534533	     -7.42115571	     -0.40972611	    -10.64481751	    -16.10360990	     19.39530386	      7.60402296	     32.55540858	    -12.44781799	    -33.40124307	    -22.14077669	     11.84463745	    -11.46793355	     -2.77629709	      3.60444820	     28.25257491
      2.92000000	     -3.61255607	     -5.45892662	    -10.35898919	     -0.10134379	      0.85799049	      0.32356959	     -7.95005125	     -0.44436903	    -10.68053845	    -16.57743454	     19.14945595	      8.18860893	     32.27596806	    -12.71341315	    -34.92043576	    -22.80548930	     11.51698844	    -12.12451191	     -2.60151697	      3.48941394	     28.05609104
      2.93000000	     -3.57491765	     -5.64850196	     -9.85601095	     -0.09198983	      0.85677220	      0.32166259	     -8.41511829	     -0.48796695	    -10.65359453	    -17.14493280	     18.79967597	      8.82608702	     32.01457410	    -12.98530835	    -36.20147888	    -23.58380198	     11.10603731	    -12.76226601	     -2.41322878	      3.35669899	     27.86528710
      2.94000000	     -3.54339917	     -5.82461016	     -9.33702067	     -0.08264058	      0.85568280	      0.31963420	     -8.82089689	     -0.54578051	    -10.53869686	    -17.79259570	     18.32944747	      9.47651959	     31.79163058	    -13.24545416	    -37.20584772	    -24.45301030	     10.54815138	    -13.31665239	     -2.22463754	      3.18410560	     27.67824367
      2.95000000	     -3.49775661	     -5.97654329	     -8.80118530	     -0.07331886	      0.85477540	      0.31747195	     -9.17383703	     -0.63431130	    -10.33241937	    -18.53885235	     17.74704144	     10.13108156	     31.61383079	    -13.48298512	    -37.91903526	    -25.42059410	      9.93612189	    -13.77558886	     -2.06284145	      2.96057916	     27.49877314
      2.96000000	     -3.44349275	     -6.08989859	     -8.20777351	     -0.06406904	      0.85407661	      0.31509900	     -9.45800746	     -0.76204484	    -10.07222156	    -19.39680488	     17.02094931	     10.84801108	     31.51338688	    -13.63569313	    -38.23134382	    -26.44679096	      9.27303752	    -14.15706082	     -1.92602991	      2.67320850	     27.27383169
      2.97000000	     -3.36706659	     -6.16425920	     -7.55464587	     -0.05488824	      0.85361356	      0.31250841	     -9.67446631	     -0.93256632	     -9.76774376	    -20.38795696	     16.15941603	     11.59860307	     31.48262812	    -13.69046546	    -38.14591840	    -27.53463185	      8.69988820	    -14.44788783	     -1.83199411	      2.32419600	     27.01546962
      2.98000000	     -3.26026796	     -6.20290912	     -6.84517827	     -0.04577110	      0.85340798	      0.30970229	     -9.82273098	     -1.14423793	     -9.41855504	    -21.52610754	     15.14646112	     12.38742149	     31.49768048	    -13.63128099	    -37.68752694	    -28.65765578	      8.29401717	    -14.66260627	     -1.79039258	      1.92025071	     26.74307271
      2.99000000	     -3.12688170	     -6.21616886	     -6.07855047	     -0.03669490	      0.85345787	      0.30668320	     -9.89709450	     -1.38386693	     -9.02032634	    -22.81238032	     13.95918482	     13.25783058	     31.53323463	    -13.45239631	    -36.91914132	    -29.77657411	      8.08721465	    -14.82425771	     -1.79537165	      1.48067660	     26.45273340
      3.00000000	     -2.98293872	     -6.21396161	     -5.28228177	     -0.02761794	      0.85373709	      0.30347839	     -9.87985376	     -1.64380566	     -8.53703081	    -24.23646059	     12.54692186	     14.32542784	     31.56033512	    -13.17342686	    -35.97234940	    -30.85276089	      8.10505024	    -14.96283360	     -1.81948993	      1.02665522	     26.17485061
      3.01000000	     -2.82928801	     -6.23879135	     -4.42587167	     -0.01857005	      0.85420705	      0.30004454	     -9.76778354	     -1.87331689	     -8.01421626	    -25.79908467	     10.93560295	     15.43302093	     31.56510303	    -12.80676079	    -34.83074098	    -31.84141995	      8.29311714	    -15.06119151	     -1.86599386	      0.61193025	     25.88888666
      3.02000000	     -2.68301546	     -6.31276924	     -3.53588769	     -0.00955578	      0.85481780	      0.29640564	     -9.53524180	     -2.05137074	     -7.42157324	    -27.48871046	      9.10827064	     16.60593960	     31.53506162	    -12.39904436	    -33.60680944	    -32.72222351	      8.62959164	    -15.15355054	     -1.90968013	      0.27276510	     25.61843669
      3.03000000	     -2.55299084	     -6.46164818	     -2.63758463	     -0.00060602	      0.85552837	      0.29261358	     -9.15739188	     -2.15092337	     -6.73741473	    -29.30237652	      7.07816181	     17.81324662	     31.46058134	    -12.00139788	    -32.36688056	    -33.48199505	      9.08524655	    -15.25632319	     -1.93743189	      0.04030564	     25.38423368
      3.04000000	     -2.44464530	     -6.72420927	     -1.71704751	      0.00823630	      0.85628151	      0.28864822	     -8.62514024	     -2.12824805	     -6.00117285	    -31.22075986	      4.88298082	     18.85543487	     31.36163659	    -11.65828060	    -31.09479190	    -34.13528207	      9.64104718	    -15.34748699	     -1.94008412	     -0.03491370	     25.17035560
      3.05000000	     -2.35296246	     -7.03019983	     -0.89090205	      0.01697769	      0.85708920	      0.28466580	     -7.90535009	     -2.07570868	     -5.08390092	    -33.27277828	      2.58597893	     20.08773526	     31.16946247	    -11.38700532	    -30.03364460	    -34.65758140	     10.32217283	    -15.45696341	     -1.91129083	     -0.03055767	     25.07599490
      3.06000000	     -2.26498285	     -7.41924453	     -0.08759236	      0.02553554	      0.85793763	      0.28060808	     -7.02546781	     -1.93446880	     -4.10965656	    -35.42166421	      0.23030279	     21.02244273	     30.92481599	    -11.20196445	    -29.04435844	    -35.08398963	     11.00786780	    -15.50184098	     -1.87219789	      0.09551778	     25.04413130
      3.07000000	     -2.19347519	     -7.86480660	      0.65488179	      0.03386993	      0.85878197	      0.27655607	     -5.95925707	     -1.72975442	     -3.04120094	    -37.67877309	     -2.14131806	     21.77897650	     30.63843778	    -11.11639960	    -28.20409182	    -35.42498924	     11.70880744	    -15.47458568	     -1.81051209	      0.31132295	     25.08984913
